<?xml version="1.0" encoding="UTF-8" standalone="no"?>
<svg
   width="24px"
   height="24px"
   viewBox="0 0 24 24"
   version="1.1"
   id="svg1133"
   sodipodi:docname="google-svgrepo-com.svg"
   inkscape:version="1.1 (c4e8f9e, 2021-05-24)"
   xmlns:inkscape="http://www.inkscape.org/namespaces/inkscape"
   xmlns:sodipodi="http://sodipodi.sourceforge.net/DTD/sodipodi-0.dtd"
   xmlns="http://www.w3.org/2000/svg"
   xmlns:svg="http://www.w3.org/2000/svg"
   xmlns:rdf="http://www.w3.org/1999/02/22-rdf-syntax-ns#"
   xmlns:cc="http://creativecommons.org/ns#"
   xmlns:dc="http://purl.org/dc/elements/1.1/">
  <defs
     id="defs1137" />
  <sodipodi:namedview
     id="namedview1135"
     pagecolor="#ffffff"
     bordercolor="#666666"
     borderopacity="1.0"
     inkscape:pageshadow="2"
     inkscape:pageopacity="0.0"
     inkscape:pagecheckerboard="0"
     showgrid="false"
     inkscape:zoom="31.375"
     inkscape:cx="12"
     inkscape:cy="12"
     inkscape:window-width="1296"
     inkscape:window-height="997"
     inkscape:window-x="0"
     inkscape:window-y="25"
     inkscape:window-maximized="0"
     inkscape:current-layer="svg1133" />
  <title
     id="title1126">google</title>
  <desc
     id="desc1128">Created with sketchtool.</desc>
  <g
     id="brand"
     stroke="none"
     stroke-width="1"
     fill="none"
     fill-rule="evenodd">
    <g
       id="google"
       fill="#000000"
       fill-rule="nonzero">
      <path
         d="M11.99,13.9 L11.99,10.18 L21.35,10.18 C21.49,10.81 21.6,11.4 21.6,12.23 C21.6,17.94 17.77,22 12,22 C6.48,22 2,17.52 2,12 C2,6.48 6.48,2 12,2 C14.7,2 16.96,2.99 18.69,4.61 L15.85,7.37 C15.13,6.69 13.87,5.89 12,5.89 C8.69,5.89 5.99,8.64 5.99,12.01 C5.99,15.38 8.69,18.13 12,18.13 C15.83,18.13 17.24,15.48 17.5,13.91 L11.99,13.91 L11.99,13.9 Z"
         id="Shape"
         style="fill:#333132;fill-opacity:1" />
    </g>
  </g>
  <metadata
     id="metadata1139">
    <rdf:RDF>
      <cc:Work
         rdf:about="">
        <dc:title>google</dc:title>
      </cc:Work>
    </rdf:RDF>
  </metadata>
</svg>
