<?xml version="1.0" encoding="UTF-8" standalone="no"?>
<svg
   width="24px"
   height="24px"
   viewBox="0 0 24 24"
   role="img"
   version="1.1"
   id="svg870"
   sodipodi:docname="tripadvisor-svgrepo-com.svg"
   inkscape:version="1.1 (c4e8f9e, 2021-05-24)"
   xmlns:inkscape="http://www.inkscape.org/namespaces/inkscape"
   xmlns:sodipodi="http://sodipodi.sourceforge.net/DTD/sodipodi-0.dtd"
   xmlns="http://www.w3.org/2000/svg"
   xmlns:svg="http://www.w3.org/2000/svg"
   xmlns:rdf="http://www.w3.org/1999/02/22-rdf-syntax-ns#"
   xmlns:cc="http://creativecommons.org/ns#"
   xmlns:dc="http://purl.org/dc/elements/1.1/">
  <defs
     id="defs874" />
  <sodipodi:namedview
     id="namedview872"
     pagecolor="#ffffff"
     bordercolor="#666666"
     borderopacity="1.0"
     inkscape:pageshadow="2"
     inkscape:pageopacity="0.0"
     inkscape:pagecheckerboard="0"
     showgrid="false"
     inkscape:zoom="22.708333"
     inkscape:cx="12"
     inkscape:cy="12"
     inkscape:window-width="1296"
     inkscape:window-height="997"
     inkscape:window-x="0"
     inkscape:window-y="25"
     inkscape:window-maximized="0"
     inkscape:current-layer="svg870" />
  <title
     id="title866">Tripadvisor icon</title>
  <path
     d="M12.006 4.295c-2.67 0-5.338.784-7.645 2.353H0l1.963 2.135a5.997 5.997 0 0 0 4.04 10.43 5.976 5.976 0 0 0 4.075-1.6L12 19.705l1.922-2.09a5.972 5.972 0 0 0 4.072 1.598 6 6 0 0 0 6-5.998 5.982 5.982 0 0 0-1.957-4.432L24 6.648h-4.35a13.573 13.573 0 0 0-7.644-2.353zM12 6.255c1.531 0 3.063.303 4.504.903C13.943 8.138 12 10.43 12 13.1c0-2.671-1.942-4.962-4.504-5.942A11.72 11.72 0 0 1 12 6.256zM6.002 9.157a4.059 4.059 0 1 1 0 8.118 4.059 4.059 0 0 1 0-8.118zm11.992.002a4.057 4.057 0 1 1 .003 8.115 4.057 4.057 0 0 1-.003-8.115zm-11.992 1.93a2.128 2.128 0 0 0 0 4.256 2.128 2.128 0 0 0 0-4.256zm11.992 0a2.128 2.128 0 0 0 0 4.256 2.128 2.128 0 0 0 0-4.256z"
     id="path868"
     style="fill:#333132;fill-opacity:1" />
  <metadata
     id="metadata956">
    <rdf:RDF>
      <cc:Work
         rdf:about="">
        <dc:title>Tripadvisor icon</dc:title>
      </cc:Work>
    </rdf:RDF>
  </metadata>
</svg>
