<?xml version="1.0" encoding="UTF-8" standalone="no"?>
<!-- Generator: Adobe Illustrator 18.1.1, SVG Export Plug-In . SVG Version: 6.00 Build 0)  -->

<svg
   version="1.1"
   id="Capa_1"
   x="0px"
   y="0px"
   viewBox="0 0 29.94 29.94"
   style="enable-background:new 0 0 29.94 29.94;"
   xml:space="preserve"
   sodipodi:docname="facebook-svgrepo-com.svg"
   inkscape:version="1.1 (c4e8f9e, 2021-05-24)"
   xmlns:inkscape="http://www.inkscape.org/namespaces/inkscape"
   xmlns:sodipodi="http://sodipodi.sourceforge.net/DTD/sodipodi-0.dtd"
   xmlns="http://www.w3.org/2000/svg"
   xmlns:svg="http://www.w3.org/2000/svg"><defs
   id="defs2199" /><sodipodi:namedview
   id="namedview2197"
   pagecolor="#ffffff"
   bordercolor="#666666"
   borderopacity="1.0"
   inkscape:pageshadow="2"
   inkscape:pageopacity="0.0"
   inkscape:pagecheckerboard="0"
   showgrid="false"
   inkscape:zoom="25.1503"
   inkscape:cx="14.97"
   inkscape:cy="14.97"
   inkscape:window-width="1296"
   inkscape:window-height="997"
   inkscape:window-x="0"
   inkscape:window-y="25"
   inkscape:window-maximized="0"
   inkscape:current-layer="Capa_1" />
<g
   id="g2164">
	<path
   d="M27.56,0.684H2.383C1.065,0.684,0,1.748,0,3.064v23.813c0,1.312,1.065,2.379,2.383,2.379H27.56   c1.312,0,2.38-1.066,2.38-2.379V3.064C29.939,1.748,28.871,0.684,27.56,0.684z M20.125,9.167c-0.619-0.362-1.11-0.648-1.727-0.648   c-0.604,0-1.12,0.151-1.384,0.405c-0.264,0.252-0.395,0.74-0.395,1.461v1.067h3.229l-0.699,2.968h-2.53v9.862h-4.056V14.42H10.67   v-2.968h1.895v-1.133c0-1.193,0.143-1.907,0.425-2.496c0.281-0.587,0.826-1.241,1.584-1.611c0.757-0.369,1.877-0.555,3.036-0.555   c1.188,0,2.116,0.396,3.254,0.715L20.125,9.167z"
   id="path2132"
   style="fill:#333132;fill-opacity:1" />
	<g
   id="g2134">
	</g>
	<g
   id="g2136">
	</g>
	<g
   id="g2138">
	</g>
	<g
   id="g2140">
	</g>
	<g
   id="g2142">
	</g>
	<g
   id="g2144">
	</g>
	<g
   id="g2146">
	</g>
	<g
   id="g2148">
	</g>
	<g
   id="g2150">
	</g>
	<g
   id="g2152">
	</g>
	<g
   id="g2154">
	</g>
	<g
   id="g2156">
	</g>
	<g
   id="g2158">
	</g>
	<g
   id="g2160">
	</g>
	<g
   id="g2162">
	</g>
</g>
<g
   id="g2166">
</g>
<g
   id="g2168">
</g>
<g
   id="g2170">
</g>
<g
   id="g2172">
</g>
<g
   id="g2174">
</g>
<g
   id="g2176">
</g>
<g
   id="g2178">
</g>
<g
   id="g2180">
</g>
<g
   id="g2182">
</g>
<g
   id="g2184">
</g>
<g
   id="g2186">
</g>
<g
   id="g2188">
</g>
<g
   id="g2190">
</g>
<g
   id="g2192">
</g>
<g
   id="g2194">
</g>
</svg>
